<?xml version="1.0" encoding="UTF-8" standalone="no"?><!DOCTYPE svg PUBLIC "-//W3C//DTD SVG 1.1//EN" "http://www.w3.org/Graphics/SVG/1.1/DTD/svg11.dtd"><svg width="100%" height="100%" viewBox="0 0 472 472" version="1.1" xmlns="http://www.w3.org/2000/svg" xmlns:xlink="http://www.w3.org/1999/xlink" xml:space="preserve" xmlns:serif="http://www.serif.com/" style="fill-rule:evenodd;clip-rule:evenodd;stroke-linejoin:round;stroke-miterlimit:2;"><path d="M472,118l0,236c0,65.126 -52.874,118 -118,118l-236,0c-65.126,0 -118,-52.874 -118,-118l0,-236c0,-65.126 52.874,-118 118,-118l236,0c65.126,0 118,52.874 118,118Z" style="fill:#aa833e;"/><g><path d="M213.509,259.74c-5.056,50.367 -8.687,139.196 -65.671,160.045c-16.144,5.907 -35.865,-2.558 -31.734,-5.73c2.539,-1.949 29.578,19.806 53.115,-23.693c18.761,-34.672 20.155,-116.353 23.478,-149.419c0.04,-0.395 0.442,-4.404 -0.546,-4.932c-1.914,-1.021 -25.851,12.391 -54.843,8.348c-27.707,-3.864 -36.439,-27.291 -29.945,-24.635c1.657,0.678 5.416,18.903 36.578,21.246c28.725,2.16 61.142,-19.045 65.788,-22.084c43.967,-28.761 104.854,-97.774 160.375,-71.672c52.614,24.736 69.035,141.044 -12.747,216.832c-49.704,46.06 -112.177,47.459 -114.19,45.826c-10.35,-8.396 59.66,8.941 123.68,-60.694c79.691,-86.68 42.637,-237.438 -51.446,-196.611c-34.03,14.767 -50.846,38.18 -95.557,67.338c-4.874,3.178 -3.857,5.004 -5.103,23.664c-0.543,8.123 -0.681,8.037 -1.232,16.169Z" style="fill:#fff;stroke:#253a57;stroke-opacity:0;stroke-width:1px;"/><path d="M218.854,186.935c-2.12,20.029 -0.715,21.103 -4.965,24.106c-17.404,12.3 -19.385,11.681 -19.368,9.939c0.043,-4.377 3.388,-59.276 12.353,-90.72c2.714,-9.52 15.399,-60.236 55.943,-84.411c41.217,-24.576 74.931,-2.153 72.194,18.398c-0.485,3.641 -3.018,2.035 -3.133,1.244c-0.271,-1.858 1.169,-12.609 -12.798,-21.203c-14.202,-8.738 -39.401,-7.805 -58.951,13.523c-33.642,36.703 -38.174,104.125 -41.276,129.123Z" style="fill:#fff;stroke:#253a57;stroke-opacity:0;stroke-width:1px;"/><path d="M335.375,271.14c16.352,-0.402 16.283,-0.882 25.598,-1.429c6.997,-0.411 -3.426,17.989 -24.204,22.69c-35.375,8.003 -57.324,-23.231 -47.233,-22.681c19.759,1.077 19.662,1.661 45.84,1.42Z" style="fill:#fff;stroke:#253a57;stroke-opacity:0;stroke-width:1px;"/><path d="M66.68,267.959c1.674,8.669 5.72,37.095 29.303,70.916c15.414,22.105 33.396,34.907 36.813,37.34c0.351,0.25 7.682,5.469 1.706,5.114c-0.029,-0.002 -62.475,-36.237 -72.859,-122.877c-5.414,-45.167 9.975,-103.997 60.279,-142.129c19.134,-14.505 44.467,-24.439 45.001,-21.011c1.008,6.473 -27.228,1.857 -66.161,45.816c-4.857,5.484 -17.675,22.07 -25.79,43.095c-14.532,37.652 -11.305,66.072 -8.292,83.736Z" style="fill:#fff;stroke:#253a57;stroke-opacity:0;stroke-width:1px;"/><path d="M325.869,176.84c10.641,3.795 1.683,8.794 3.316,12.731c5.779,13.937 20.259,46.133 22.056,50.129c9.418,20.941 9.962,21.653 8.384,22.785c-1.96,1.407 -2.283,-0.408 -17.897,-36.233c-4.813,-11.042 -4.98,-10.891 -9.823,-21.994c-4.455,-10.214 -6.166,-17.827 -8.38,-11.7c-1.437,3.977 -13.279,29.971 -14.461,32.566c-4.57,10.033 -13.219,30.58 -14.342,33.25c-0.163,0.388 -3.83,9.099 -4.39,2.902c-0.269,-2.977 32.074,-71.762 31.092,-74.017c-0.452,-1.038 -6.641,-8.986 4.445,-10.417Z" style="fill:#fff;stroke:#253a57;stroke-opacity:0;stroke-width:1px;"/></g></svg>